<?xml version="1.0" standalone="no"?>
<!DOCTYPE svg PUBLIC "-//W3C//DTD SVG 20010904//EN"
 "http://www.w3.org/TR/2001/REC-SVG-20010904/DTD/svg10.dtd">
<svg version="1.0" xmlns="http://www.w3.org/2000/svg"
 width="600.000000pt" height="600.000000pt" viewBox="0 0 600.000000 600.000000"
 preserveAspectRatio="xMidYMid meet">
<metadata>
Created by potrace 1.14, written by Peter Selinger 2001-2017
</metadata>
<g transform="translate(0.000000,600.000000) scale(0.100000,-0.100000)"
fill="#000000" stroke="none">
<path d="M3043 4868 c-13 -16 -113 -187 -113 -192 0 -3 21 -20 48 -39 62 -46
106 -109 128 -182 16 -56 17 -170 17 -1680 0 -891 2 -1626 4 -1632 5 -13 208
-18 239 -6 12 4 14 103 14 688 l0 683 102 93 c56 52 111 103 122 114 12 11 68
63 126 115 57 52 111 102 120 110 9 8 43 40 76 70 76 69 253 233 306 283 22
20 44 37 48 37 7 0 90 -141 207 -350 11 -19 58 -102 105 -185 47 -82 95 -167
106 -187 12 -20 48 -83 81 -140 48 -83 498 -876 587 -1033 12 -22 54 -96 93
-163 39 -68 71 -128 71 -133 0 -15 52 -23 158 -22 56 1 109 2 117 2 22 1 18
30 -11 81 -48 84 -77 135 -114 200 -53 93 -390 689 -410 725 -35 61 -98 171
-122 215 -14 25 -63 113 -110 195 -120 210 -124 217 -194 343 -35 62 -98 171
-139 243 -41 72 -75 132 -75 133 0 1 -34 61 -75 132 l-74 129 78 75 c43 41 98
93 122 115 73 66 180 165 244 224 33 31 114 106 180 166 66 61 131 121 146
135 14 14 66 62 115 106 136 124 141 130 259 239 61 55 132 121 158 145 33 30
47 50 45 64 -3 20 -9 21 -169 23 -157 2 -166 1 -191 -20 -14 -12 -69 -62 -123
-112 -53 -49 -109 -101 -124 -114 -60 -54 -189 -173 -626 -577 -148 -137 -290
-267 -314 -289 -24 -22 -58 -53 -76 -70 -34 -32 -229 -212 -275 -255 -29 -27
-198 -182 -241 -222 -14 -12 -70 -64 -125 -114 -164 -150 -178 -163 -181 -160
-2 1 -3 354 -3 783 0 755 -1 783 -21 854 -27 98 -69 175 -136 249 -58 63 -131
120 -156 120 -8 0 -19 -6 -24 -12z"/>
<path d="M1007 4804 c-1 -1 -35 -5 -75 -8 -282 -26 -548 -215 -676 -480 -62
-130 -80 -212 -80 -366 0 -247 74 -431 238 -595 146 -145 302 -221 576 -280
91 -20 190 -42 220 -50 30 -8 66 -16 80 -19 114 -21 436 -102 489 -123 121
-48 250 -143 326 -243 246 -322 220 -748 -64 -1030 -131 -130 -293 -210 -461
-228 -30 -3 -299 -6 -598 -6 -462 -1 -544 1 -552 14 -5 8 -7 17 -4 21 2 4 -2
11 -9 17 -15 12 -228 13 -243 1 -12 -9 -11 -33 1 -91 18 -83 85 -162 170 -199
49 -22 54 -22 630 -22 319 0 609 4 645 8 36 4 103 18 150 31 88 26 270 110
305 141 11 10 38 31 60 47 52 38 148 137 197 204 85 115 169 311 183 427 4 27
8 52 11 56 9 16 5 228 -6 295 -52 312 -261 603 -540 752 -93 50 -174 78 -315
108 -89 18 -367 82 -435 99 -8 2 -86 20 -173 39 -187 43 -245 64 -325 115
-119 77 -199 169 -253 286 -36 80 -41 101 -45 207 -10 273 181 522 456 593 58
15 140 17 750 17 377 0 693 2 703 5 15 4 17 19 17 124 0 101 -2 121 -16 126
-13 5 -1331 12 -1337 7z"/>
</g>
</svg>
