<?xml version="1.0" standalone="no"?>
<!DOCTYPE svg PUBLIC "-//W3C//DTD SVG 20010904//EN"
 "http://www.w3.org/TR/2001/REC-SVG-20010904/DTD/svg10.dtd">
<svg version="1.0" xmlns="http://www.w3.org/2000/svg"
 width="153.000000pt" height="153.000000pt" viewBox="0 0 153.000000 153.000000"
 preserveAspectRatio="xMidYMid meet">
<metadata>
Created by potrace 1.14, written by Peter Selinger 2001-2017
</metadata>
<g transform="translate(0.000000,153.000000) scale(0.100000,-0.100000)"
fill="#000000" stroke="none">
<path d="M473 1272 l-2 -245 -26 -25 -27 -24 28 -29 27 -28 -1 -211 0 -210
119 0 c99 0 119 3 120 15 0 8 1 40 2 70 0 30 3 55 7 55 3 0 21 -17 39 -37 l33
-37 -88 -83 c-48 -46 -89 -83 -91 -83 -2 0 -20 -16 -41 -35 -20 -19 -71 -65
-112 -103 l-75 -70 37 -38 c82 -87 128 -139 128 -146 0 -18 60 -7 72 12 7 11
17 20 22 20 5 0 19 10 31 23 25 25 174 161 255 232 30 27 67 61 83 77 15 15
30 28 33 28 4 0 17 10 29 23 12 12 42 41 68 64 26 23 47 45 47 49 0 3 -17 23
-37 44 -46 47 -70 74 -198 215 -54 61 -111 123 -127 139 l-27 29 41 39 c22 21
42 38 43 38 2 0 23 18 47 40 63 58 74 69 168 151 46 41 91 80 98 87 16 14 2
35 -87 131 -28 30 -51 59 -51 63 0 4 -7 8 -15 8 -8 0 -15 -4 -15 -8 0 -4 -21
-24 -47 -45 -27 -20 -74 -61 -107 -92 -32 -30 -61 -55 -63 -55 -2 0 -23 -18
-45 -40 -23 -22 -45 -40 -48 -40 -4 0 -7 60 -8 133 0 72 -1 135 -1 139 -1 4
-54 7 -119 7 l-118 -1 -1 -246z"/>
</g>
</svg>
